# xmcd
#
# Track frame offsets:
#	150
#	22212
#	41578
#	60923
#	81689
#	102349
#	120992
#	138483
#	157473
#	173132
#	192765
#
# Disc length: 2777 seconds
#
# Revision: 8
# Processed by: cddbd v1.5.2PL0 Copyright (c) Steve Scherf et al.
# Submitted via: EZCDAudioConverter 2.4.0.1
#
DISCID=990ad70b
DTITLE=Chitãozinho and Xororó - Cowboy Do Asfalto
DYEAR=1990
DGENRE=Sertanejo
TTITLE0=Evidências
TTITLE1=Natureza, Espelho De Deus
TTITLE2=É Assim Que Te Amo
TTITLE3=Tô  Deixando Você
TTITLE4=Bom Dia
TTITLE5=Nuvem De Lágrimas
TTITLE6=Cowboy Do Asfalto
TTITLE7=Meus Direitos
TTITLE8=Gente Humilde
TTITLE9=Sem Estória, Sem Destino
TTITLE10=Longe
EXTD=
EXTT0=
EXTT1=
EXTT2=
EXTT3=
EXTT4=
EXTT5=
EXTT6=
EXTT7=
EXTT8=
EXTT9=
EXTT10=
PLAYORDER=
